inDegrees=yes
name=wink_l_res.mot
DataType=double
version=3
OpenSimVersion=4.4-2022-07-23-0e9fedc
endheader
time	pelvis_tilt	pelvis_list	pelvis_rotation	pelvis_tx	pelvis_ty	pelvis_tz	hip_flexion_r	hip_adduction_r	hip_rotation_r	knee_angle_r	knee_angle_r_beta	ankle_angle_r	subtalar_angle_r	mtp_angle_r	hip_flexion_l	hip_adduction_l	hip_rotation_l	knee_angle_l	knee_angle_l_beta	ankle_angle_l	subtalar_angle_l	mtp_angle_l	lumbar_extension	lumbar_bending	lumbar_rotation	arm_flex_r	arm_add_r	arm_rot_r	elbow_flex_r	pro_sup_r	wrist_flex_r	wrist_dev_r	arm_flex_l	arm_add_l	arm_rot_l	elbow_flex_l	pro_sup_l	wrist_flex_l	wrist_dev_l
0	0.0006073438527871114	-0.004732437809192556	90.00244527504213	0	0.9399999999999999	0	1.333548568068505	-0.7031983203567832	0	6.756201949899204	0.1179179689554021	-0.4364311273421353	0	0	1.333548568068505	-0.7031983203567832	0	6.756201949899204	0.1179179689554021	-0.4364311273421353	0	0	0.0117135470284216	0.001428778562338205	-0.005885463012415863	0	-0.1529010509168539	0	9.360714542990081	9.142111758016751	0	0	-0.4554418801167812	-0.9756183698623798	-0.05424911292749529	0.1256565890016188	9.142111758016751	0	0
1	-0.002940449309669258	-0.01256968190503416	90.0002465729052	0	0.9399999999999999	0	1.343691506858276	-0.708498033857189	0	6.786104790629294	0.1184398719818416	-0.4396997164558148	0	0	1.343691506858276	-0.708498033857189	0	6.786104790629294	0.1184398719818416	-0.4396997164558148	0	0	0.01408818270429861	-0.00251376142590806	-0.001762239089043116	0	-0.1540905693785125	0	9.403480240566049	9.183695738900614	0	0	-0.4439647134145695	-0.9756024075658355	-0.05150745785195762	0.1247510137948511	9.183695738900614	0	0
2	-0.003684735849591478	-0.01376559640940788	90.00006714731744	0	0.9399999999999999	0	1.354383913617882	-0.714084394703685	0	6.817499004949103	0.118987804387799	-0.4431448295829163	0	0	1.354383913617882	-0.714084394703685	0	6.817499004949103	0.118987804387799	-0.4431448295829163	0	0	0.01278211067275139	-0.002813298356719244	-0.0008117270504619303	0	-0.1553447310419444	0	9.448376668563403	9.227340356444069	0	0	-0.440836441543024	-0.975320376685649	-0.05090951943249607	0.1248961531192902	9.227340356444069	0	0
3	-0.003696139028772867	-0.01373736132125707	89.99982863375375	0	0.9399999999999999	0	1.365092028402216	-0.7196780314407047	0	6.8488022321941	0.1195341487697242	-0.446594052353621	0	0	1.365092028402216	-0.7196780314407047	0	6.8488022321941	0.1195341487697242	-0.446594052353621	0	0	0.01237344579766743	-0.002838379178571019	-0.000792319816914724	0	-0.1566012126376276	0	9.493134646938142	9.270837773486042	0	0	-0.4405068958808976	-0.9753139176333387	-0.05074086145638967	0.1249725008505243	9.270837773486042	0	0
4	-0.003774163330404232	-0.01367506474542379	90.00002596365056	0	0.9399999999999999	0	1.375785265353791	-0.7252629119000824	0	6.87992616653422	0.1200773639001338	-0.4500374876583633	0	0	1.375785265353791	-0.7252629119000824	0	6.87992616653422	0.1200773639001338	-0.4500374876583633	0	0	0.0123409718441088	-0.002777678922509063	-0.0005996371753052402	0	-0.1578564632185551	0	9.537627721264808	9.314065223513092	0	0	-0.4405209198611703	-0.9753752712318187	-0.05084027563203242	0.1250078509610031	9.314065223513092	0	0
5	0.01983153286846517	0.009656197951091634	90.01781223367529	0	0.9399999999999999	0	1.41071375298827	-0.7434947177847716	0	6.98066857400322	0.1218356506068536	-0.4612755480865131	0	0	1.41071375298827	-0.7434947177847716	0	6.98066857400322	0.1218356506068536	-0.4612755480865131	0	0	-0.04209554535878225	0.03639179932852747	-0.02884775925930821	0	-0.1619653242761468	0	9.681654932932313	9.453932541850095	0	0	-0.1375708991737929	-0.6123492143893147	-0.3517830387604162	0.1875274090807353	9.453932541850095	0	0
6	-0.01019944229832752	0.02575165649395273	89.99561680152389	0	0.9399999999999999	0	1.418595356002988	-0.7476004917000213	0	7.003120181650604	0.1222275050826664	-0.4638043233795208	0	0	1.418595356002988	-0.7476004917000213	0	7.003120181650604	0.1222275050826664	-0.4638043233795208	0	0	-0.04288462995546659	-0.02619387466293302	0.01553311128428445	0	-0.162897517205442	0	9.713670121088539	9.48499191667044	0	0	-0.4704943371450901	-0.3553593343721254	-0.5183841392869855	0.1348823639346048	9.48499191667044	0	0
7	0.002342265750906666	-0.009233740181333229	90.00110520008822	0	0.9399999999999999	0	1.443113286270758	-0.7603880030568123	0	7.072740604513193	0.1234426106882493	-0.4716828545515813	0	0	1.443113286270758	-0.7603880030568123	0	7.072740604513193	0.1234426106882493	-0.4716828545515813	0	0	0.01098896562166914	0.01778413720928603	-0.005078998002814346	0	-0.1657872410794507	0	9.813114877904255	9.581460731676628	0	0	-0.9747202559764412	1.255553604754625	-0.8816260249551326	0.08419473741347376	9.581460731676628	0	0
8	0.005683797888841349	-0.001670777247305787	90.00615466034702	0	0.9399999999999999	0	1.464381201333202	-0.7714742304018996	0	7.132592431750841	0.1244872221368811	-0.4785111487692012	0	0	1.464381201333202	-0.7714742304018996	0	7.132592431750841	0.1244872221368811	-0.4785111487692012	0	0	-0.003425877791726296	0.008166247180348587	-0.008875066275328991	0	-0.1682974362609701	0	9.898555951058121	9.664293086953569	0	0	-0.7630487815297534	2.433486548184127	-2.156668372561725	0.04184845515725081	9.664293086953569	0	0
9	0.003210749487804314	0.01511723378103202	90.00409293676857	0	0.9399999999999999	0	1.635351064152587	-0.8481457673159528	0	7.471103971206215	0.1303953630563721	-0.5232830740242723	0	0	1.635351064152587	-0.8481457673159528	0	7.471103971206215	0.1303953630563721	-0.5232830740242723	0	0	-0.006839042025553205	0.01124836919147671	-0.01219399416023573	0	-0.1976086888268278	0	10.28115887650007	10.02396819803724	0	0	0.5142291501831248	4.888860718772809	-4.769956065277844	0.02393771814408433	10.02396819803724	0	0
10	-0.003199355299351525	0.008231951227852563	90.00576972938113	0	0.9399999999999999	0	1.806273754877446	-0.9244152191357253	0	7.801915594122534	0.1361691150801278	-0.5677254062212472	0	0	1.806273754877446	-0.9244152191357253	0	7.801915594122534	0.1361691150801278	-0.5677254062212472	0	0	-0.004597615112291301	0.008825270399987539	-0.01011825762919209	0	-0.2271011406126209	0	10.655678804417	10.37446135479707	0	0	2.621850211764523	7.83658682859961	-7.712719884957752	0.01422345458446662	10.37446135479707	0	0
11	0.007569453878827442	-0.001215228954398506	90.00815967762733	0	0.9399999999999999	0	41.77191737336656	-10.41247866679225	0	58.23076649654978	1.016318601324797	-5.117296586554617	0	0	41.77191737336656	-10.41247866679225	0	58.23076649654978	1.016318601324797	-5.117296586554617	0	0	0.007900234709727292	-0.004100154135195233	-0.01285053189321738	0	-10.33182338797674	0	75.79779576089349	46.76912438163399	0	0	5.658978385006123	10.37835577078597	-10.95793548288523	0.0100102486630097	46.76912438163399	0	0
12	4.33357192995358e-05	0.01316820309454923	89.99548576676911	0	0.9399999999999999	0	41.78215960679302	-10.40918446293854	0	58.23622612749863	1.016413889860798	-5.116159531669693	0	0	41.78215960679302	-10.40918446293854	0	58.23622612749863	1.016413889860798	-5.116159531669693	0	0	-0.3195646290385241	-0.8108614594784249	0.6773137459590177	0	-10.34068698239133	0	75.79526723810683	46.75721000138883	0	0	10.82057414839171	12.35549797407939	-14.53872252798265	0.008069179648164289	46.75721000138883	0	0
13	-0.002251413629646756	0.01735547860937331	89.99130410079714	0	0.9399999999999999	0	41.79252857622746	-10.40588690255601	0	58.24177518241434	1.016510739139451	-5.115025039040971	0	0	41.79252857622746	-10.40588690255601	0	58.24177518241434	1.016510739139451	-5.115025039040971	0	0	-0.3169742350731752	-0.8071988709786968	0.6761094165168793	0	-10.34969550118851	0	75.79270736726305	46.74525277197282	0	0	15.45911288721327	13.29068927622343	-18.62955518427083	0.006847457882739195	46.74525277197282	0	0
14	-0.0002482665797056461	0.0004364983613107619	89.99959371373097	0	0.9399999999999999	0	41.80294311134069	-10.40256180054241	0	58.2473243364459	1.016607590148002	-5.113880376688049	0	0	41.80294311134069	-10.40256180054241	0	58.2473243364459	1.016607590148002	-5.113880376688049	0	0	-0.3043075808046408	-0.8141682115752835	0.685429269112599	0	-10.35872537338671	0	75.79013627551144	46.73320349949571	0	0	20.646301209771	14.39401625899458	-22.35118524632652	0.006016570432433171	46.73320349949571	0	0
15	-0.0003402199810541625	0.000597516863168321	89.99951901474353	0	0.9399999999999999	0	41.81300035755869	-10.39935791706824	0	58.25267760302	1.016701022275457	-5.112778523433499	0	0	41.81300035755869	-10.39935791706824	0	58.25267760302	1.016701022275457	-5.112778523433499	0	0	-0.3044198374978073	-0.8149822627724337	0.6856765541383059	0	-10.36744869607477	0	75.78765338229537	46.72158580480283	0	0	25.76503796636381	14.73630269825831	-25.72577963513342	0.005594287177653997	46.72158580480283	0	0
16	0.006845285361576226	0.006758432700976132	89.99095071717663	0	0.9399999999999999	0	41.82223538924369	-10.39645907413131	0	58.25762053308386	1.016787292679767	-5.111785817973491	0	0	41.82223538924369	-10.39645907413131	0	58.25762053308386	1.016787292679767	-5.111785817973491	0	0	-0.3082131850956552	-0.8187575201010857	0.7017078180212704	0	-10.3755002415831	0	75.78537340507758	46.71103886628696	0	0	30.93235588162894	15.72419996097983	-28.31371866091877	0.005516540026538632	46.71103886628696	0	0
17	0.001988611867113039	0.004785823201283474	89.99535623722367	0	0.9399999999999999	0	41.83081052703225	-10.39374243256271	0	58.26218413775649	1.016866942607064	-5.110853319817065	0	0	41.83081052703225	-10.39374243256271	0	58.26218413775649	1.016866942607064	-5.110853319817065	0	0	-0.3109390127406127	-0.8097436224930014	0.6907097623870306	0	-10.38294995574984	0	75.78325638685565	46.70117420785815	0	0	35.4106783981201	17.11276315870565	-31.11819784022819	0.005699134579348869	46.70117420785815	0	0
18	4.54621234412855e-05	-0.0003028039995023347	90.00043035990909	0	0.9399999999999999	0	41.87780944579215	-10.37564188703035	0	58.28321352973181	1.017233974736726	-5.104460773249313	0	0	41.87780944579215	-10.37564188703035	0	58.28321352973181	1.017233974736726	-5.104460773249313	0	0	-0.3035780718339912	-0.815066209352042	0.6851609097698622	0	-10.41931556628205	0	75.77165966511357	46.63739705421337	0	0	38.82228864635648	16.76877774819866	-33.8714401937035	0.00541132454160235	46.63739705421337	0	0
